# xmcd
#
# Track frame offsets:
#	150
#	26817
#	52727
#	83880
#	105800
#	130485
#	154095
#
# Disc length: 2332 seconds
#
# Revision: 1
# Processed by: cddbd v1.5.1PL0 Copyright (c) Steve Scherf et al.
# Submitted via: CDex 1.50Beta5
#
DISCID=4b091a07
DTITLE=Sayoko - mi.luv.dem
DYEAR=1900
DGENRE=Rock
TTITLE0=上を向いて歩こう
TTITLE1=Mo'luv Telepathy
TTITLE2=Mr. LOVER MAN 〜ベッドの中 愛をいっぱいにして〜
TTITLE3=SPIRITEK
TTITLE4=EVERYTIME YOU'RE GONE
TTITLE5=WAITING IN VAIN
TTITLE6=CALLING YOU
EXTD=
EXTT0=
EXTT1=
EXTT2=
EXTT3=
EXTT4=
EXTT5=
EXTT6=
PLAYORDER=
